<svg width="232" height="232" viewBox="0 0 232 232" fill="none" xmlns="http://www.w3.org/2000/svg">
<rect width="232" height="232" rx="17" fill="#0D141C"/>
<path d="M84.2859 58.0707V58.0707C83.711 58.785 83.3948 59.6728 83.389 60.5896L83.2143 87.8815C83.0919 103.66 83 126.608 83 138.863V144.222C83 153.578 90.5592 161.175 99.9147 161.222L101.309 161.229C119.22 161.321 119.618 161.352 121.333 161.995C126.109 163.803 129.813 168.276 130.334 172.871V172.871C130.456 173.886 131.317 174.648 132.338 174.648H139.274H145.512C146.855 174.648 147.915 173.507 147.816 172.167V172.167C147.418 167.111 144.938 160.31 141.968 156.143C140.254 153.723 136.58 150.23 133.794 148.392C131.344 146.768 131.344 146.89 134.192 145.236C136.274 144.01 140.621 139.507 142.06 137.086C146.99 128.691 147.663 117.723 143.775 108.225C141.172 101.791 135.263 95.5717 128.681 92.2628C120.077 87.9428 110.065 87.5139 101.921 91.1292C101.401 91.3743 101.37 90.4551 101.37 74.1863V65.0813C101.37 60.6173 97.7514 56.9984 93.2873 56.9984V56.9984H86.566C85.6842 56.9984 84.8483 57.3915 84.2859 58.0707V58.0707ZM119.496 108.991C124.67 111.412 127.425 117.049 126.997 124.249C126.599 130.744 123.568 136.106 118.455 139.445C115.24 141.498 113.372 141.927 106.973 142.111V142.111C103.899 142.178 101.37 139.704 101.37 136.629V130.775C101.37 118.366 101.462 117.509 103.115 114.69C103.973 113.219 107.065 110.247 108.504 109.481C110.984 108.195 112.515 107.827 114.995 107.949C116.985 108.041 117.873 108.225 119.496 108.991Z" fill="white"/>
</svg>
